#!OML:ASF H:\MichaelJackson\Top Level 1\Subject 1\Session 1\male.ASF
:FULLY-SPECIFIED
:DEGREES
293
root -16.2198 16.7674 -13.7164 10.5734 9.96206 -9.43136
lowerback 5.47573 -1.12872 8.51461
upperback -0.686841 -0.79782 3.19716
thorax -3.87379 -0.539668 -1.3744
lowerneck -8.66285 -1.71625 1.40168
upperneck 3.99357 -2.4046 -0.738269
head 2.75877 -1.19881 -0.602982
rclavicle -1.87417e-014 1.55549e-014
rhumerus -26.2313 -26.6498 -77.5759
rradius 101.786
rwrist -29.6312
rhand -46.4035 -78.8021
rfingers 7.12502
rthumb -19.1337 -612.119
lclavicle -1.87417e-014 1.55549e-014
lhumerus -50.9067 -12.8377 96.9121
lradius 49.6067
lwrist 10.2563
lhand -32.8068 12.7665
lfingers 7.12502
lthumb -6.02769 42.6608
rfemur -27.3279 17.8203 23.6024
rtibia 37.5874
rfoot -22.3054 -9.15774
rtoes 13.6496
lfemur -48.4775 3.53196 2.08135
ltibia 73.5827
lfoot 10.2015 20.7619
ltoes 31.0949
294
root -16.2641 16.768 -13.6956 10.24 10.56 -9.54661
lowerback 5.78371 -1.008 8.55794
upperback -0.580205 -0.601145 3.29488
thorax -3.91856 -0.440595 -1.31167
lowerneck -8.67325 -1.97595 1.23284
upperneck 4.21806 -2.73534 -0.689222
head 2.83569 -1.36328 -0.576912
rclavicle -8.36138e-015 -2.73826e-014
rhumerus -27.0548 -24.8049 -77.8402
rradius 98.2657
rwrist -28.3796
rhand -44.5888 -76.0442
rfingers 7.12502
rthumb -17.3879 -614.714
lclavicle -8.36138e-015 -2.73826e-014
lhumerus -51.2801 -12.4529 97.0833
lradius 49.522
lwrist 10.3412
lhand -31.8432 13.2271
lfingers 7.12502
lthumb -5.09738 43.1458
rfemur -26.8281 16.9043 24.1465
rtibia 37.4443
rfoot -22.2682 -8.82267
rtoes 13.6414
lfemur -50.355 3.90756 1.19172
ltibia 75.3385
lfoot 11.3502 16.3699
ltoes 27.3316
295
root -16.3056 16.7658 -13.6725 9.90706 11.0913 -9.65223
lowerback 6.06593 -0.880845 8.59946
upperback -0.450027 -0.400869 3.38651
thorax -3.92398 -0.338015 -1.25639
lowerneck -8.70398 -2.22018 1.03003
upperneck 4.41026 -3.04278 -0.624422
head 2.90753 -1.5164 -0.539026
rclavicle 2.00027e-014 3.598e-014
rhumerus -27.8566 -22.6377 -78.08
rradius 95.0401
rwrist -27.8454
rhand -41.7558 -70.016
rfingers 7.12502
rthumb -14.6599 -620.522
lclavicle 2.00027e-014 3.598e-014
lhumerus -51.7144 -12.1419 97.3236
lradius 49.4823
lwrist 10.368
lhand -30.8088 13.8151
lfingers 7.12502
lthumb -4.09849 43.7554
rfemur -26.3542 16.1139 24.6572
rtibia 37.3687
rfoot -22.2568 -8.65572
rtoes 13.4234
lfemur -52.1018 4.24485 0.234949
ltibia 76.9022
lfoot 11.9331 11.989
ltoes 23.0056
296
root -16.3439 16.7618 -13.6473 9.57064 11.5575 -9.75424
lowerback 6.33327 -0.743652 8.66395
upperback -0.299266 -0.189135 3.46798
thorax -3.89878 -0.228908 -1.22682
lowerneck -8.71655 -2.45141 0.782747
upperneck 4.53136 -3.3293 -0.532232
head 2.9542 -1.65927 -0.482625
rclavicle 2.09966e-014 2.79292e-014
rhumerus -28.6156 -20.2881 -78.3388
rradius 92.1091
rwrist -27.5049
rhand -37.963 -62.6105
rfingers 7.12502
rthumb -11.0036 -627.698
lclavicle 2.09966e-014 2.79292e-014
lhumerus -52.2225 -11.8951 97.6218
lradius 49.4965
lwrist 10.3191
lhand -29.7228 14.4412
lfingers 7.12502
lthumb -3.04976 44.3992
rfemur -25.8878 15.4272 25.1455
rtibia 37.3341
rfoot -22.2614 -8.6046
rtoes 13.1006
lfemur -53.7083 4.53392 -0.780245
ltibia 78.2572
lfoot 12.0989 7.89802
ltoes 18.66
297
root -16.3789 16.7567 -13.6204 9.22258 11.9545 -9.86855
lowerback 6.60691 -0.589054 8.78005
upperback -0.137524 0.0492433 3.53452
thorax -3.86339 -0.107193 -1.24482
lowerneck -8.69421 -2.68274 0.530361
upperneck 4.57764 -3.61441 -0.450486
head 2.9698 -1.80229 -0.427272
rclavicle -9.0944e-015 -8.94531e-015
rhumerus -29.3179 -17.905 -78.6383
rradius 89.3894
rwrist -26.8787
rhand -33.0816 -54.8273
rfingers 7.12502
rthumb -6.29294 -804.714
lclavicle -9.0944e-015 -8.94531e-015
lhumerus -52.8007 -11.7291 97.9744
lradius 49.5328
lwrist 10.2332
lhand -28.5828 15.1005
lfingers 7.12502
lthumb -1.94879 45.0714
rfemur -25.408 14.8338 25.629
rtibia 37.3122
rfoot -22.2829 -8.63636
rtoes 12.6761
lfemur -55.1622 4.7734 -1.82671
ltibia 79.3925
lfoot 12.0886 4.23266
ltoes 14.6458
298
root -16.4103 16.7518 -13.5917 8.87079 12.298 -9.98378
lowerback 6.87618 -0.422317 8.94083
upperback 0.0367694 0.305612 3.58827
thorax -3.80994 0.0234651 -1.30357
lowerneck -8.63293 -2.91048 0.263597
upperneck 4.53925 -3.89278 -0.372967
head 2.95043 -1.94272 -0.368687
rclavicle -2.06239e-014 -9.74045e-015
rhumerus -29.908 -15.5747 -78.9939
rradius 86.7421
rwrist -25.6758
rhand -27.1899 -47.1282
rfingers 7.12502
rthumb -0.603522 -797.107
lclavicle -2.06239e-014 -9.74045e-015
lhumerus -53.4351 -11.6058 98.3618
lradius 49.597
lwrist 10.1126
lhand -27.3764 15.7437
lfingers 7.12502
lthumb -0.783671 45.722
rfemur -24.9104 14.2935 26.0936
rtibia 37.2794
rfoot -22.3117 -8.69894
rtoes 12.1668
lfemur -56.4698 4.93352 -2.90057
ltibia 80.2982
lfoot 12.1004 1.07743
ltoes 11.2574
299
root -16.4383 16.7481 -13.5611 8.51358 12.5963 -10.1002
lowerback 7.14648 -0.239492 9.15466
upperback 0.209367 0.58746 3.61849
thorax -3.75463 0.165762 -1.41953
lowerneck -8.5169 -3.14297 0.0297242
upperneck 4.43923 -4.17975 -0.322952
head 2.89939 -2.08804 -0.323118
rclavicle 5.41688e-015 -1.92821e-014
rhumerus -30.3871 -13.3972 -79.4173
rradius 84.0384
rwrist -23.6789
rhand -20.8261 -39.7354
rfingers 7.12502
rthumb 5.54225 -789.643
lclavicle 5.41688e-015 -1.92821e-014
lhumerus -54.1382 -11.5473 98.7755
lradius 49.6663
lwrist 10.0152
lhand -26.1032 16.3107
lfingers 7.12502
lthumb 0.446046 46.29
rfemur -24.3828 13.7779 26.5407
rtibia 37.2154
rfoot -22.3179 -8.76449
rtoes 11.5478
lfemur -57.6295 4.99677 -3.98053
ltibia 80.9681
lfoot 12.2594 -1.53741
ltoes 8.61585
300
root -16.463 16.7458 -13.5288 8.16056 12.8595 -10.2137
lowerback 7.40733 -0.0543113 9.40326
upperback 0.386051 0.873978 3.63759
thorax -3.68645 0.310568 -1.56747
lowerneck -8.38595 -3.36719 -0.180334
upperneck 4.2989 -4.45722 -0.300475
head 2.83164 -2.22926 -0.288926
rclavicle -1.17283e-014 1.61016e-014
rhumerus -30.6846 -11.3714 -79.9152
rradius 81.1397
rwrist -20.7636
rhand -14.4693 -32.5007
rfingers 7.12502
rthumb 11.6765 -782.155
lclavicle -1.17283e-014 1.61016e-014
lhumerus -54.8914 -11.4891 99.1921
lradius 49.779
lwrist 9.96716
lhand -24.7333 16.8214
lfingers 7.12502
lthumb 1.76914 46.7938
rfemur -23.8344 13.2663 26.9617
rtibia 37.106
rfoot -22.2953 -8.78931
rtoes 10.9539
lfemur -58.6465 4.95077 -5.04937
ltibia 81.3986
lfoot 12.6356 -3.64507
ltoes 6.66892
301
root -16.4847 16.7455 -13.4939 7.81327 13.0981 -10.3114
lowerback 7.65482 0.129541 9.66895
upperback 0.55373 1.15904 3.63618
thorax -3.61693 0.454422 -1.7466
lowerneck -8.2151 -3.58195 -0.335904
upperneck 4.13858 -4.72713 -0.307218
head 2.74832 -2.36677 -0.271534
rclavicle -3.8763e-015 -1.0138e-014
rhumerus -30.8335 -9.53078 -80.4833
rradius 78.0137
rwrist -16.938
rhand -8.84685 -25.4983
rfingers 7.12502
rthumb 17.0939 -774.766
lclavicle -3.8763e-015 -1.0138e-014
lhumerus -55.714 -11.4404 99.6031
lradius 49.9363
lwrist 10.0193
lhand -23.3166 17.2908
lfingers 7.12502
lthumb 3.13737 47.2475
rfemur -23.2552 12.7359 27.3484
rtibia 36.9411
rfoot -22.247 -8.78076
rtoes 10.2937
lfemur -59.5123 4.78438 -6.09607
ltibia 81.5814
lfoot 13.2604 -5.31279
ltoes 5.28197
302
root -16.5038 16.7482 -13.4562 7.48911 13.3267 -10.3828
lowerback 7.85787 0.299336 9.91615
upperback 0.718556 1.41857 3.62925
thorax -3.52532 0.587184 -1.91862
lowerneck -8.03469 -3.77603 -0.463104
upperneck 3.97623 -4.97245 -0.327625
head 2.66212 -2.49193 -0.261409
rclavicle -3.18055e-015 -6.75868e-015
rhumerus -30.8026 -7.87012 -81.1103
rradius 74.6243
rwrist -12.2906
rhand -4.62623 -18.741
rfingers 7.12502
rthumb 21.1525 -767.607
lclavicle -3.18055e-015 -6.75868e-015
lhumerus -56.5835 -11.3586 100.01
lradius 50.159
lwrist 10.1918
lhand -21.9252 17.7165
lfingers 7.12502
lthumb 4.48096 47.6491
rfemur -22.6585 12.1978 27.6867
rtibia 36.7176
rfoot -22.1838 -8.76023
rtoes 9.6015
lfemur -60.2458 4.48521 -7.10858
ltibia 81.5087
lfoot 14.1338 -6.63185
ltoes 4.37783
303
root -16.5205 16.7545 -13.4148 7.19258 13.5462 -10.4173
lowerback 8.00885 0.460221 10.1253
upperback 0.868841 1.6569 3.60888
thorax -3.42008 0.71059 -2.0809
lowerneck -7.82314 -3.95067 -0.542917
upperneck 3.82985 -5.19716 -0.357267
head 2.57447 -2.60627 -0.260278
rclavicle -2.14687e-014 -4.09496e-014
rhumerus -30.6455 -6.4511 -81.7767
rradius 71.0457
rwrist -7.07237
rhand -2.17658 -12.5902
rfingers 7.12502
rthumb 23.504 -761.174
lclavicle -2.14687e-014 -4.09496e-014
lhumerus -57.5255 -11.2582 100.416
lradius 50.47
lwrist 10.4804
lhand -20.5723 18.1895
lfingers 7.12502
lthumb 5.78731 48.0905
rfemur -22.0422 11.6657 27.9692
rtibia 36.4322
rfoot -22.1102 -8.72983
rtoes 8.96639
lfemur -60.8405 4.05737 -8.07363
ltibia 81.1774
lfoot 15.2115 -7.67627
ltoes 3.90033
304
root -16.5353 16.7642 -13.3699 6.93556 13.7692 -10.4125
lowerback 8.09249 0.598431 10.261
upperback 1.014 1.85053 3.6015
thorax -3.28808 0.814463 -2.18326
lowerneck -7.6519 -4.09641 -0.6138
upperneck 3.73481 -5.38362 -0.399432
head 2.51139 -2.7017 -0.264244
rclavicle -1.2921e-015 2.5842e-014
rhumerus -30.3453 -5.25706 -82.4489
rradius 67.3468
rwrist -1.62222
rhand -1.57858 -7.71111
rfingers 7.12502
rthumb 24.0775 -756.221
lclavicle -1.2921e-015 2.5842e-014
lhumerus -58.5079 -11.0824 100.833
lradius 50.8913
lwrist 10.8712
lhand -19.3566 18.6833
lfingers 7.12502
lthumb 6.96096 48.5488
rfemur -21.4191 11.1507 28.1943
rtibia 36.0865
rfoot -22.0345 -8.71049
rtoes 8.40951
lfemur -61.3104 3.49941 -8.97358
ltibia 80.5907
lfoot 16.4297 -8.52617
ltoes 3.68719
305
root -16.5487 16.7772 -13.3207 6.71595 13.9967 -10.3702
lowerback 8.11613 0.736829 10.3366
upperback 1.1302 2.03287 3.58462
thorax -3.15494 0.912976 -2.25985
lowerneck -7.45722 -4.23633 -0.6413
upperneck 3.68689 -5.56717 -0.441358
head 2.45867 -2.79494 -0.275138
rclavicle 2.3556e-014 -1.59028e-015
rhumerus -29.9929 -4.42533 -83.1082
rradius 63.6153
rwrist 3.70364
rhand -2.48912 -4.45445
rfingers 7.12502
rthumb 23.2042 -753.077
lclavicle 2.3556e-014 -1.59028e-015
lhumerus -59.5733 -10.9253 101.284
lradius 51.4079
lwrist 11.3548
lhand -18.2758 19.212
lfingers 7.12502
lthumb 8.00418 49.0404
rfemur -20.7801 10.6921 28.3688
rtibia 35.6817
rfoot -21.9618 -8.74315
rtoes 7.935
lfemur -61.6493 2.82402 -9.78803
ltibia 79.7603
lfoot 17.7047 -9.24344
ltoes 3.69538
306
root -16.5606 16.7932 -13.2675 6.5397 14.2315 -10.292
lowerback 8.07136 0.867211 10.3244
upperback 1.23452 2.18915 3.58654
thorax -3.00246 1.00041 -2.26389
lowerneck -7.30894 -4.35937 -0.675449
upperneck 3.70104 -5.72737 -0.479207
head 2.43578 -2.87647 -0.284609
rclavicle -9.83984e-015 -3.97569e-016
rhumerus -29.5651 -3.96027 -83.7126
rradius 59.8867
rwrist 8.5885
rhand -4.53009 -2.91635
rfingers 7.12502
rthumb 21.2448 -751.772
lclavicle -9.83984e-015 -3.97569e-016
lhumerus -60.6787 -10.7201 101.775
lradius 52.0424
lwrist 11.8708
lhand -17.2969 19.8131
lfingers 7.12502
lthumb 8.94889 49.6033
rfemur -20.1365 10.2786 28.4967
rtibia 35.2229
rfoot -21.8914 -8.82297
rtoes 7.54365
lfemur -61.8716 2.04123 -10.5052
ltibia 78.7038
lfoot 18.9312 -9.87403
ltoes 3.72885
